<?xml version="1.0" encoding="utf-8"?>
<!-- Generator: Adobe Illustrator 16.0.0, SVG Export Plug-In . SVG Version: 6.00 Build 0)  -->
<!DOCTYPE svg PUBLIC "-//W3C//DTD SVG 1.1//EN" "http://www.w3.org/Graphics/SVG/1.1/DTD/svg11.dtd">
<svg version="1.1"
	 id="svg2" xmlns:dc="http://purl.org/dc/elements/1.1/" xmlns:cc="http://creativecommons.org/ns#" xmlns:rdf="http://www.w3.org/1999/02/22-rdf-syntax-ns#" xmlns:svg="http://www.w3.org/2000/svg" xmlns:sodipodi="http://sodipodi.sourceforge.net/DTD/sodipodi-0.dtd" xmlns:inkscape="http://www.inkscape.org/namespaces/inkscape"
	 xmlns="http://www.w3.org/2000/svg" xmlns:xlink="http://www.w3.org/1999/xlink" x="0px" y="0px" width="1000px"
	 height="352.337px" viewBox="-210.504 -74.168 1000 352.337" enable-background="new -210.504 -74.168 1000 352.337"
	 xml:space="preserve">
<g>
	<path id="path2222" fill="#FCD604" d="M33.453,276.593h-243.957V-73.223H33.453V276.593z M-175.302,241.296H-1.844V-37.926
		h-173.458V241.296z"/>
	<g>
		<path id="path2224" d="M162.979,24.788h-11.975c-15.758-22.375-31.516-44.75-47.273-69.647l0,0v69.647H90.179v-97.381h12.291
			c15.757,22.376,31.515,44.437,46.958,69.333h0.315v-69.333h13.236V24.788"/>
		<path id="path2226" d="M194.809-13.66c3.782-12.921,7.563-24.582,11.031-39.709h0.314c4.097,15.127,7.564,26.788,11.031,39.709
			H194.809z M201.112-72.593l-33.72,97.381h14.497l8.509-26.472h29.308l7.564,26.472h18.594l-30.884-97.381H201.112"/>
		<path id="path2228" d="M261.621,24.788v-84.145h-25.528v-13.237h67.756v13.237h-25.525v84.145H261.621"/>
		<path id="path2230" d="M309.209,24.788h16.702v-97.381h-16.702V24.788z"/>
		<path id="path2232" d="M377.28,12.497c-17.334,0-23.637-19.224-23.637-37.817c0-17.964,7.249-34.982,23.637-34.982
			s23.321,17.018,23.321,34.982C400.602-6.727,394.614,12.497,377.28,12.497z M377.28,26.364c25.528,0,41.284-22.691,41.284-51.685
			c0-27.103-17.647-48.848-41.284-48.848s-41.284,21.745-41.284,48.848C335.996,3.673,351.753,26.364,377.28,26.364"/>
		<path id="path2234" d="M501.449,24.788h-11.976c-16.072-22.375-31.515-44.75-47.271-69.647h-0.315v69.647h-13.237v-97.381h11.978
			c16.071,22.376,31.513,44.437,47.271,69.333h0.315v-69.333h13.235V24.788"/>
		<path id="path2236" d="M532.965-13.66c4.097-12.921,7.878-24.582,11.346-39.709h0.313c3.783,15.127,7.25,26.788,11.031,39.709
			H532.965L532.965-13.66z M539.583-72.593l-33.722,97.381h14.497l8.509-26.472h29.31l7.563,26.472h18.594l-30.884-97.381H539.583"
			/>
		<path id="path2238" d="M589.377-72.593h16.387v84.145h32.775v13.236h-49.162V-72.593"/>
	</g>
	<g>
		<path id="path2240" d="M152.895,106.097v40.023c-9.139,3.468-18.279,5.989-27.734,5.989c-28.678,0-46.642-22.061-46.642-50.739
			c0-26.473,17.964-49.794,47.273-49.794c8.824,0,17.963,3.466,23.636,7.563L143.754,70.8c-4.411-2.836-11.345-5.358-17.648-5.358
			c-17.647,0-29.939,14.182-29.939,36.242c0,23.006,13.867,36.559,28.364,36.559c4.412,0,8.194-0.631,11.661-2.206v-29.94H152.895"
			/>
		<path id="path2242" d="M212.458,66.388h-27.733v26.473h27.103v13.236h-27.103v31.2H217.5v13.235h-49.478v-97.38h44.436V66.388"/>
		<path id="path2244" d="M263.827,138.243c-17.334,0-23.637-19.225-23.637-37.818c0-17.964,6.934-34.982,23.637-34.982
			c16.388,0,23.321,17.019,23.321,34.982C287.148,119.019,281.16,138.243,263.827,138.243z M263.827,152.109
			c25.527,0,41.284-22.691,41.284-51.685c0-27.103-17.648-48.849-41.284-48.849c-23.952,0-41.284,21.746-41.284,48.849
			C222.543,129.418,238.299,152.109,263.827,152.109"/>
		<path id="path2246" d="M385.159,106.097v40.023c-9.139,3.468-18.278,5.989-27.732,5.989c-28.679,0-46.643-22.061-46.643-50.739
			c0-26.473,17.963-49.794,47.271-49.794c8.825,0,17.965,3.466,23.637,7.563L376.021,70.8c-4.412-2.836-11.346-5.358-17.649-5.358
			c-17.647,0-29.938,14.182-29.938,36.242c0,23.006,13.866,36.559,28.363,36.559c4.412,0,8.194-0.631,11.66-2.206v-29.94H385.159"/>
		<path id="path2248" d="M416.989,66.388h7.248c10.086,0,15.443,5.673,15.443,15.758c0,12.921-7.879,18.909-15.757,19.225
			c-1.577,0-5.674,0.314-6.935,0.314V66.388L416.989,66.388z M459.221,150.532l-19.54-40.339
			c10.715-5.672,16.702-17.333,16.702-28.993c0-18.594-11.346-28.048-29.939-28.048h-26.157v97.38h16.703v-36.557h7.563
			l15.758,36.557H459.221"/>
		<path id="path2250" d="M486.637,112.085c4.097-12.921,7.88-24.582,11.347-39.709h0.315c3.781,15.127,7.247,26.789,11.028,39.709
			H486.637L486.637,112.085z M493.256,53.152l-33.722,97.38h14.497l8.509-26.471h29.31l7.564,26.471h18.594l-30.887-97.38H493.256"
			/>
		<path id="path2252" d="M559.752,150.532h-16.388v-97.38h25.842c18.595,0,30.255,9.455,30.255,28.048
			c0,16.388-12.291,32.775-32.146,32.775h-7.563v-12.291c0.631,0,5.358-0.315,7.249-0.315c7.879-0.314,15.757-6.302,15.757-19.224
			c0-10.084-5.672-15.758-15.442-15.758h-7.563V150.532"/>
		<path id="path2254" d="M676.673,150.532H659.97v-46.957h-34.667v46.957h-16.388v-97.38h16.388v37.503h34.667V53.467h16.703
			V150.532"/>
		<path id="path2256" d="M692.745,150.532h16.388v-97.38h-16.388V150.532z"/>
		<path id="path2258" d="M784.139,70.8c-4.097-2.522-10.715-5.358-17.019-5.358c-17.019,0-29.309,14.182-29.309,36.242
			c0,23.006,13.552,36.559,29.624,36.559c6.304,0,12.291-2.206,16.703-4.728l4.728,11.975c-5.043,3.467-14.183,6.619-22.062,6.619
			c-28.678,0-46.641-22.061-46.641-50.739c0-26.473,17.963-49.794,46.956-49.794c8.51,0,16.703,3.782,22.376,7.564L784.139,70.8"/>
	</g>
	<g>
		<path id="path2260" fill="#818285" d="M142.179,197.175c-4.097-2.521-10.715-5.356-17.018-5.356
			c-17.019,0-29.309,13.866-29.309,35.926c0,23.006,13.551,36.557,29.624,36.557c6.303,0,12.291-1.889,16.703-4.727l4.412,11.976
			c-5.042,3.468-13.867,6.619-21.745,6.619c-28.678,0-46.642-22.062-46.642-50.738c0-26.475,17.964-49.48,46.958-49.48
			c8.508,0,16.388,3.468,22.06,7.564L142.179,197.175"/>
		<path id="path2262" fill="#818285" d="M220.021,276.593h-16.703V229.95h-34.352v46.643h-16.703v-97.067h16.703v37.188h34.352
			v-36.87h16.703V276.593"/>
		<path id="path2264" fill="#818285" d="M253.112,238.144c3.781-12.605,7.878-24.581,11.345-39.394h0.315
			c3.782,14.813,7.249,26.788,10.715,39.394H253.112z M259.415,179.525l-33.406,97.067h14.497l8.194-26.474h29.309l7.563,26.474
			h18.595l-30.885-97.067H259.415"/>
		<path id="path2266" fill="#818285" d="M382.638,276.593h-11.976c-15.757-22.375-31.514-44.437-46.957-69.648h-0.315v69.648
			h-13.235v-97.067h11.976c16.072,22.377,31.514,44.122,46.957,69.019h0.315v-69.019h13.235V276.593"/>
		<path id="path2268" fill="#818285" d="M471.195,276.593h-12.291c-15.758-22.375-31.515-44.437-46.958-69.648h-0.313v69.648
			h-13.237v-97.067h11.976c16.072,22.377,31.516,44.122,46.957,69.019h0.315v-69.019h13.552V276.593"/>
		<path id="path2270" fill="#818285" d="M528.236,192.763h-27.418v26.474h27.103v12.92h-27.103v31.516h32.462v12.921h-49.163
			v-97.067h44.119V192.763"/>
		<path id="path2272" fill="#818285" d="M542.733,179.525h16.388v84.146h32.777v12.921h-49.165V179.525"/>
	</g>
</g>
</svg>
